<svg xmlns="http://www.w3.org/2000/svg" viewBox="0 0 116.95 35.33"><defs><style>.cls-1{fill:#fff;}.cls-2{fill:lime;}</style></defs><g id="Layer_2" data-name="Layer 2"><g id="Layer_2-2" data-name="Layer 2"><path class="cls-1" d="M17.67,4.42H26.5V0H8.83V4.42h8.84Z"/><path class="cls-1" d="M8.83,4.42H4.42V8.83H8.83Z"/><path class="cls-1" d="M30.92,4.42H26.5V8.83h4.42Z"/><path class="cls-1" d="M13.25,8.83H8.83v4.42h4.42Z"/><path class="cls-1" d="M26.5,8.83H22.08v4.42H26.5Z"/><path class="cls-1" d="M30.92,8.83V26.5h4.41V8.83Z"/><path class="cls-1" d="M4.42,17.67V8.83H0V26.5H4.42V17.67Z"/><path class="cls-1" d="M13.25,17.67H8.83v4.41h4.42Z"/><path class="cls-1" d="M26.5,17.67H22.08v4.41H26.5Z"/><path class="cls-1" d="M13.25,22.08V26.5h8.83V22.08H13.25Z"/><path class="cls-1" d="M8.83,26.5H4.42v4.42H8.83Z"/><path class="cls-1" d="M30.92,26.5H26.5v4.42h4.42Z"/><path class="cls-1" d="M17.67,30.92H8.83v4.41H26.5V30.92H17.67Z"/><path class="cls-1" d="M47.33,16V3.47H50.9V8.83h5.36V3.47h3.57V16H56.26V10.61H50.9V16Zm14.28,0V3.47h12.5V5.26H65.18V8.83h7.14v1.78H65.18v3.57h8.93V16Zm16.07,0V3.47h3.57V14.18h7.14V16ZM92,16V3.47h3.57V14.18h7.14V16Zm14.28,0V14.18h-1.78V5.26h1.78V3.47h8.93V5.26H117v8.92h-1.78V16ZM108,14.18h5.35V5.26H108Z"/><path class="cls-2" d="M49.12,30V28.18H47.33V17.47H50.9v7.14h1.79V17.47h1.78v7.14h1.79V17.47h3.57V28.18H58V30H56.26V28.18H54.47V26.4H52.69v1.78H50.9V30ZM63.4,30V28.18H61.61V19.26H63.4V17.47h8.92v1.79h1.79v8.92H72.32V30Zm1.78-1.79h5.36V19.26H65.18ZM75.89,30V17.47H86.61v1.79h1.78v5.35H84.82V26.4h1.79v1.78h1.78V30H83V28.18H81.25V26.4H79.47V30Zm3.58-5.36H83V22.83h1.78V19.26H79.47ZM92,30V17.47h3.57V28.18h7.14V30Zm12.5,0V17.47h8.92v1.79h1.79V21H117V26.4h-1.78v1.78h-1.79V30ZM108,28.18h3.57V26.4h1.78V21H111.6V19.26H108Z"/></g></g></svg>